HIERARCHY
ROOT hip
{
  OFFSET 0 0 0
  CHANNELS 6 Xposition Yposition Zposition Zrotation Yrotation Xrotation
  JOINT abdomen
  {
    OFFSET 0 20.6881 -0.73152
    CHANNELS 3 Zrotation Xrotation Yrotation
    JOINT chest
    {
      OFFSET 0 11.7043 -0.48768
      CHANNELS 3 Zrotation Xrotation Yrotation
      JOINT neck
      {
        OFFSET 0 22.1894 -2.19456
        CHANNELS 3 Zrotation Xrotation Yrotation
        JOINT head
        {
          OFFSET -0.24384 7.07133 1.2192
          CHANNELS 3 Zrotation Xrotation Yrotation
          JOINT leftEye
          {
            OFFSET 4.14528 8.04674 8.04672
            CHANNELS 3 Zrotation Xrotation Yrotation
            End Site
            {
              OFFSET 1 0 0
            }
          }
          JOINT rightEye
          {
            OFFSET -3.6576 8.04674 8.04672
            CHANNELS 3 Zrotation Xrotation Yrotation
            End Site
            {
              OFFSET 1 0 0
            }
          }
        }
      }
      JOINT rCollar
      {
        OFFSET -2.68224 19.2634 -4.8768
        CHANNELS 3 Zrotation Xrotation Yrotation
        JOINT rShldr
        {
          OFFSET -8.77824 -1.95073 1.46304
          CHANNELS 3 Zrotation Xrotation Yrotation
          JOINT rForeArm
          {
            OFFSET -28.1742 -1.7115 0.48768
            CHANNELS 3 Zrotation Xrotation Yrotation
            JOINT rHand
            {
              OFFSET -22.5879 0.773209 7.07136
              CHANNELS 3 Zrotation Xrotation Yrotation
              JOINT rThumb1
              {
                OFFSET -1.2192 -0.487915 3.41376
                CHANNELS 3 Zrotation Xrotation Yrotation
                JOINT rThumb2
                {
                  OFFSET -3.37035 -0.52449 3.41376
                  CHANNELS 3 Zrotation Xrotation Yrotation
                  End Site
                  {
                    OFFSET -1.78271 -1.18214 1.43049
                  }
                }
              }
              JOINT rIndex1
              {
                OFFSET -7.75947 0.938293 5.60832
                CHANNELS 3 Zrotation Xrotation Yrotation
                JOINT rIndex2
                {
                  OFFSET -2.54057 -0.884171 1.56538
                  CHANNELS 3 Zrotation Xrotation Yrotation
                  End Site
                  {
                    OFFSET -1.62519 -0.234802 1.16502
                  }
                }
              }
              JOINT rMid1
              {
                OFFSET -8.24714 1.18213 3.41376
                CHANNELS 3 Zrotation Xrotation Yrotation
                JOINT rMid2
                {
                  OFFSET -3.10165 -0.590103 1.0647
                  CHANNELS 3 Zrotation Xrotation Yrotation
                  End Site
                  {
                    OFFSET -2.48547 -0.328903 0.83742
                  }
                }
              }
              JOINT rRing1
              {
                OFFSET -8.82822 0.546677 1.51678
                CHANNELS 3 Zrotation Xrotation Yrotation
                JOINT rRing2
                {
                  OFFSET -2.60934 -0.819778 -0.0198488
                  CHANNELS 3 Zrotation Xrotation Yrotation
                  End Site
                  {
                    OFFSET -2.33842 -0.294052 0.168128
                  }
                }
              }
              JOINT rPinky1
              {
                OFFSET -8.27202 -0.0477905 -0.4584
                CHANNELS 3 Zrotation Xrotation Yrotation
                JOINT rPinky2
                {
                  OFFSET -1.82734 -0.647385 -0.700984
                  CHANNELS 3 Zrotation Xrotation Yrotation
                  End Site
                  {
                    OFFSET -1.69225 -0.51767 -0.607171
                  }
                }
              }
            }
          }
        }
      }
      JOINT lCollar
      {
        OFFSET 2.68224 19.2634 -4.8768
        CHANNELS 3 Zrotation Xrotation Yrotation
        JOINT lShldr
        {
          OFFSET 8.77824 -1.95073 1.46304
          CHANNELS 3 Zrotation Xrotation Yrotation
          JOINT lForeArm
          {
            OFFSET 28.1742 -1.7115 0.48768
            CHANNELS 3 Zrotation Xrotation Yrotation
            JOINT lHand
            {
              OFFSET 22.5879 0.773209 7.07136
              CHANNELS 3 Zrotation Xrotation Yrotation
              JOINT lThumb1
              {
                OFFSET 1.2192 -0.487915 3.41376
                CHANNELS 3 Zrotation Xrotation Yrotation
                JOINT lThumb2
                {
                  OFFSET 3.37035 -0.52449 3.41376
                  CHANNELS 3 Zrotation Xrotation Yrotation
                  End Site
                  {
                    OFFSET 1.78271 -1.18214 1.43049
                  }
                }
              }
              JOINT lIndex1
              {
                OFFSET 7.75947 0.938293 5.60832
                CHANNELS 3 Zrotation Xrotation Yrotation
                JOINT lIndex2
                {
                  OFFSET 2.54057 -0.884171 1.56538
                  CHANNELS 3 Zrotation Xrotation Yrotation
                  End Site
                  {
                    OFFSET 1.62519 -0.234802 1.16502
                  }
                }
              }
              JOINT lMid1
              {
                OFFSET 8.24714 1.18213 3.41376
                CHANNELS 3 Zrotation Xrotation Yrotation
                JOINT lMid2
                {
                  OFFSET 3.10165 -0.590103 1.0647
                  CHANNELS 3 Zrotation Xrotation Yrotation
                  End Site
                  {
                    OFFSET 2.48547 -0.328903 0.83742
                  }
                }
              }
              JOINT lRing1
              {
                OFFSET 8.82822 0.546677 1.51678
                CHANNELS 3 Zrotation Xrotation Yrotation
                JOINT lRing2
                {
                  OFFSET 2.60934 -0.819778 -0.0198488
                  CHANNELS 3 Zrotation Xrotation Yrotation
                  End Site
                  {
                    OFFSET 2.33842 -0.294052 0.168128
                  }
                }
              }
              JOINT lPinky1
              {
                OFFSET 8.27202 -0.0477905 -0.4584
                CHANNELS 3 Zrotation Xrotation Yrotation
                JOINT lPinky2
                {
                  OFFSET 1.82734 -0.647385 -0.700984
                  CHANNELS 3 Zrotation Xrotation Yrotation
                  End Site
                  {
                    OFFSET 1.69225 -0.51767 -0.607171
                  }
                }
              }
            }
          }
        }
      }
    }
  }
  JOINT rButtock
  {
    OFFSET -8.77824 4.35084 1.2192
    CHANNELS 3 Zrotation Xrotation Yrotation
    JOINT rThigh
    {
      OFFSET 0 -1.70687 -2.19456
      CHANNELS 3 Zrotation Xrotation Yrotation
      JOINT rShin
      {
        OFFSET 0 -36.8199 0.73152
        CHANNELS 3 Zrotation Xrotation Yrotation
        JOINT rFoot
        {
          OFFSET 0.73152 -45.1104 -5.12064
          CHANNELS 3 Zrotation Xrotation Yrotation
          End Site
          {
            OFFSET -1.1221 -3.69964 12.103
          }
        }
      }
    }
  }
  JOINT lButtock
  {
    OFFSET 8.77824 4.35084 1.2192
    CHANNELS 3 Zrotation Xrotation Yrotation
    JOINT lThigh
    {
      OFFSET 0 -1.70687 -2.19456
      CHANNELS 3 Zrotation Xrotation Yrotation
      JOINT lShin
      {
        OFFSET 0 -36.8199 0.73152
        CHANNELS 3 Zrotation Xrotation Yrotation
        JOINT lFoot
        {
          OFFSET -0.73152 -45.1104 -5.12064
          CHANNELS 3 Zrotation Xrotation Yrotation
          End Site
          {
            OFFSET 1.1221 -3.69964 12.103
          }
        }
      }
    }
  }
}
MOTION
Frames:	4
Frame Time:	0.03333
4.208100007963367 56.30729794502258 4.233710007520131 -342.993002909121 -257.9720102340962 377.6229909068128 3.354130024022134 14.384800156228103 17.110199314319516 -4.647010128711501 -11.56020018440507 4.4303898254109 1.2295199615754493 14.245999613236041 13.58050013145585 -0.9631549636628226 -21.1414999058661 26.622400573268465 -0.0 0.0 0.0 -0.0 0.0 0.0 -1.2924000208197434e-13 -2.8522700047449993e-13 -1.5844399823777785e-13 62.43889829772358 63.30469990710357 -16.49549936449129 -24.404699621467856 -48.857999453974934 101.97800279909198 -10.228099852841021 -63.58210121005447 -16.43269919016761 3.0594200758652973e-09 2.028139930466154e-09 5.141329867422271e-10 5.232520147048513e-09 3.963460143385817e-09 1.037879995147848e-09 3.0594200758652973e-09 2.028139930466154e-09 5.141259795826945e-10 7.730910121524428 5.474879855648998 0.41731399283890674 3.0594200758652973e-09 2.028139930466154e-09 5.141329867422271e-10 2.90554006136521 0.9651829962377875 0.10290200252939893 3.0594300150986767e-09 2.028139930466154e-09 5.141370121317457e-10 10.278599710243157 0.7318009818271524 0.025912300303053633 3.05940993784725e-09 2.028139930466154e-09 5.141419817484355e-10 2.221669932038622 -0.7334870246959406 -0.20891999872313852 -1.2930099393524474e-13 -2.852289902624323e-13 -1.586009973587882e-13 -39.44629930602085 21.63079929008018 -36.559799891070924 28.430599240928252 -36.039899551827894 -77.07759878351587 2.9455199333416453 -42.86789964621166 7.49527030270628 1.728749945037306e-09 -8.960620436714036e-10 -3.9798598784621133e-10 2.9879999253543638e-09 -1.49113000903883e-09 -6.147210103135246e-10 1.7287400058039264e-09 -8.960630375947416e-10 -3.9798700661763274e-10 -7.730910121524428 5.474879855648998 -0.41731399283890674 1.728749945037306e-09 -8.960650254414174e-10 -3.979899883876466e-10 -2.90554006136521 0.9651829962377875 -0.10290200252939893 1.7287400058039264e-09 -8.960650254414174e-10 -3.9799299500574393e-10 -10.278599710243157 0.7318009818271524 -0.025912300303053633 1.728749945037306e-09 -8.960620436714036e-10 -3.9800499663004976e-10 -2.221669932038622 -0.7334870246959406 0.20891999872313852 -2.0321699793705798e-16 0.0 -3.882510030490358e-19 -50.376101204564065 -40.17760083026494 -41.12069969048196 -148.28299706962662 87.89570318346728 148.66099339867347 -6.8932800542629815 -27.406299676763535 -8.873540151738677 2.0321699793705798e-16 0.0 3.882510030490358e-19 62.847302628955326 -50.61110069314752 48.02800169622416 167.17000008708595 84.64680076134566 -167.380998290926 2.8107899696515006 -26.02390012460422 3.4537701042947497
4.335800002445467 56.26069903373718 4.247350008063222 -343.7969981367015 -257.97400464933384 376.96499780293044 3.1258800429991176 14.118800146549248 16.835200530409168 -4.49457994323068 -11.551099811109674 4.357489935738885 1.2512799837757578 14.219500186803684 13.638999847923362 -0.9467759565897205 -21.055999597835882 26.73920022317027 -0.0 0.0 0.0 -0.0 0.0 0.0 -1.0539599716916533e-13 -2.391940088945372e-13 -7.612559790754347e-14 68.74609988298846 62.08240340418394 -23.380799623369583 -24.767799307934904 -48.34330030378487 100.75599999430666 -10.259200265453028 -63.629400270056806 -16.46750071153612 1.891060011541752e-09 1.341760029255918e-09 4.121209940527214e-10 3.2301399265168682e-09 2.6123700563641595e-09 8.019969898786194e-10 1.891060011541752e-09 1.341760029255918e-09 4.121159995879482e-10 7.730910121524428 5.474879855648998 0.41731399283890674 1.891060011541752e-09 1.341760029255918e-09 4.121209940527214e-10 2.90554006136521 0.9651829962377875 0.10290200252939893 1.8910699507751317e-09 1.341760029255918e-09 4.121249945941567e-10 10.278599710243157 0.7318009818271524 0.025912300303053633 1.8910500723083725e-09 1.341760029255918e-09 4.121320017536893e-10 2.221669932038622 -0.7334870246959406 -0.20891999872313852 -1.0548199483297688e-13 -2.3919599868246965e-13 -7.626769788476706e-14 -40.508100023823516 18.580899552068754 -33.79189988086911 28.43170060893192 -35.91989995829994 -76.87860122204754 3.255159942618415 -44.522898878335354 7.943819924558419 1.1340299522304984e-09 -4.836580051001154e-10 -1.8226399689302758e-10 1.9570199448032832e-09 -8.009929782187818e-10 -2.672889949020049e-10 1.1340299522304984e-09 -4.8366401833631e-10 -1.8226599716374523e-10 -7.730910121524428 5.474879855648998 -0.41731399283890674 1.1340299522304984e-09 -4.836609868701292e-10 -1.8226599716374523e-10 -2.90554006136521 0.9651829962377875 -0.10290200252939893 1.1340200129971188e-09 -4.836609868701292e-10 -1.8227100405256019e-10 -10.278599710243157 0.7318009818271524 -0.025912300303053633 1.1340399908562117e-09 -4.836589990234534e-10 -1.8228100540614836e-10 -2.221669932038622 -0.7334870246959406 0.20891999872313852 -2.0321699793705798e-16 0.0 -3.882510030490358e-19 -50.56689912393379 -40.211799587439195 -41.19120090309483 -150.00499704241355 87.78249962816349 150.3829933714604 -6.977120199438065 -27.489399173300498 -8.981030253801752 2.0321699793705798e-16 0.0 3.882510030490358e-19 62.912298709097165 -50.47099985289222 48.24399959853664 167.1919932962134 84.63329747735654 -167.4019942924346 2.704230053976016 -26.17959940937654 3.2778999902429145
4.460400008247234 56.22410178184509 4.270890008319839 -344.48498943141857 -258.05700510812784 376.3859890066101 2.821189999879903 13.869499949391075 16.557100840615636 -4.225090133772772 -11.517800077584923 4.294419968942987 1.294509958580061 14.159600281556319 13.671299812508352 -0.9838699669201193 -20.892300453998185 26.794500849785276 -0.0 0.0 0.0 -0.0 0.0 0.0 1.3859200536441484e-13 3.8054000208597337e-13 9.146770003348475e-14 73.85889945790403 60.6555017544874 -29.016900971734856 -25.130600173625762 -47.78990130175751 99.47930103464788 -10.926999813436222 -64.59309898081058 -17.209800547891227 -1.9287599213198096e-09 6.745899825753855e-10 1.7812999640154504e-10 -3.3221100383940727e-09 9.55756979956788e-10 2.0277299619373297e-10 -1.9287599213198096e-09 6.745899825753855e-10 1.781279961308274e-10 7.730910121524428 5.474879855648998 0.41731399283890674 -1.9287599213198096e-09 6.745889886520476e-10 1.781279961308274e-10 2.90554006136521 0.9651829962377875 0.10290200252939893 -1.9287599213198096e-09 6.745889886520476e-10 1.781339969429803e-10 10.278599710243157 0.7318009818271524 0.025912300303053633 -1.928770059337857e-09 6.745920201182284e-10 1.7814199802585086e-10 2.221669932038622 -0.7334870246959406 -0.20891999872313852 1.385260026427536e-13 3.8053900719200715e-13 9.133030153689419e-14 -41.40480140900864 15.533699446326777 -31.343000440758154 28.43129933531818 -35.73159847307186 -76.57189840755728 3.6146398422687676 -46.27569958918446 8.448720314610455 -8.561129847718825e-10 8.666939944507751e-10 4.052130032211668e-10 -1.487519980083035e-09 1.4546099856552617e-09 6.605530020580815e-10 -8.561159665418964e-10 8.666799801317099e-10 4.052160098392641e-10 -7.730910121524428 5.474879855648998 -0.41731399283890674 -8.561129847718825e-10 8.666910126807611e-10 4.052149910678427e-10 -2.90554006136521 0.9651829962377875 -0.10290200252939893 -8.5612103555092e-10 8.666900187574232e-10 4.052090026797315e-10 -10.278599710243157 0.7318009818271524 -0.025912300303053633 -8.561119908485445e-10 8.666910126807611e-10 4.0520100159686097e-10 -2.221669932038622 -0.7334870246959406 0.20891999872313852 -2.0321699793705798e-16 0.0 -3.882510030490358e-19 -50.67899960368662 -40.296500763336525 -41.132099276206716 -151.54800507781113 87.66799833691739 151.92299612362316 -7.00794996580421 -27.57600084933438 -9.00765006231823 2.0321699793705798e-16 0.0 3.882510030490358e-19 62.90240176498982 -50.27879832964806 48.3913984959201 167.17900227641204 84.63499819445987 -167.38900327263326 2.625130060084922 -26.326899269017034 3.1465400845779365
4.586100010783412 56.19199872016907 4.289530007645226 -344.88400908273076 -258.1600043608116 376.0899959287384 2.5953100944988807 13.6397998338299 16.320400634928845 -4.074359811621639 -11.527100233913542 4.232900028201859 1.3905499955515508 14.108299584473999 13.689800233648977 -1.0581600135316438 -20.659599324070435 26.814699426708298 -0.0 0.0 0.0 -0.0 0.0 0.0 2.169070009060047e-13 5.826330075692994e-13 1.2940100504455605e-13 78.58269926901987 59.15999768476726 -34.0631984097966 -25.454199168575336 -47.258198395628696 98.28440042048916 -11.538900239478386 -65.40960028476142 -17.884800822806906 -3.407560013174277e-09 4.707319823938131e-10 1.472609987001836e-10 -5.861879958460476e-09 4.185469817615336e-10 7.133610186866761e-11 -3.4075500739408977e-09 4.707270127771234e-10 1.4725299761731305e-10 7.730910121524428 5.474879855648998 0.41731399283890674 -3.407560013174277e-09 4.707319823938131e-10 1.472549978880307e-10 2.90554006136521 0.9651829962377875 0.10290200252939893 -3.4075500739408977e-09 4.707319823938131e-10 1.472620050475633e-10 10.278599710243157 0.7318009818271524 0.025912300303053633 -3.407569952407657e-09 4.707350138599939e-10 1.4727300032448946e-10 2.221669932038622 -0.7334870246959406 -0.20891999872313852 2.168379892367383e-13 5.826330075692994e-13 1.292199950069708e-13 -41.957500316646076 12.619999656780928 -29.248799554435127 28.433000052421512 -35.31050023526765 -75.85020012928624 3.650439851916566 -46.437199412109415 8.497580072838142 -1.4654899674742118e-09 1.4564299586793953e-09 7.484539917896887e-10 -2.5477300532954357e-09 2.454979910382602e-09 1.2263899802331837e-09 -1.4654899674742118e-09 1.4564200194460157e-09 7.484619928725593e-10 -7.730910121524428 5.474879855648998 -0.41731399283890674 -1.4654899674742118e-09 1.4564299586793953e-09 7.484570232558695e-10 -2.90554006136521 0.9651829962377875 -0.10290200252939893 -1.4655000060999253e-09 1.4564299586793953e-09 7.484520039430128e-10 -10.278599710243157 0.7318009818271524 -0.025912300303053633 -1.4654899674742118e-09 1.4564299586793953e-09 7.484469846301561e-10 -2.221669932038622 -0.7334870246959406 0.20891999872313852 -2.0321699793705798e-16 0.0 -3.882510030490358e-19 -50.72960106015266 -40.41699896067389 -41.04150023196108 -152.7480010130907 87.57019685819198 153.1250001345187 -7.097600040642035 -27.63440067428528 -9.131850222185744 2.0321699793705798e-16 0.0 3.882510030490358e-19 62.878298027408846 -50.10689954371177 48.492700446595144 167.16900287946714 84.63809910034306 -167.38199549854482 2.644850096879218 -26.43479918243031 3.1765999605585744
